<svg width="60" height="60" viewBox="0 0 60 60" fill="none" xmlns="http://www.w3.org/2000/svg">
<path d="M0 10C0 4.47715 4.47715 0 10 0H50C55.5228 0 60 4.47715 60 10V50C60 55.5228 55.5228 60 50 60H10C4.47715 60 0 55.5228 0 50V10Z" fill="#671949"/>
<path d="M25.83 28.924C26.6953 29.0854 27.4067 29.518 27.964 30.222C28.5213 30.926 28.8 31.7327 28.8 32.642C28.8 33.4634 28.5947 34.1894 28.184 34.82C27.788 35.436 27.2087 35.92 26.446 36.272C25.6833 36.624 24.7813 36.8 23.74 36.8H17.118V21.444H23.454C24.4953 21.444 25.39 21.6127 26.138 21.95C26.9007 22.2874 27.4727 22.7567 27.854 23.358C28.25 23.9594 28.448 24.6414 28.448 25.404C28.448 26.2987 28.206 27.0467 27.722 27.648C27.2527 28.2494 26.622 28.6747 25.83 28.924ZM20.198 27.78H23.014C23.7473 27.78 24.312 27.6187 24.708 27.296C25.104 26.9587 25.302 26.482 25.302 25.866C25.302 25.25 25.104 24.7734 24.708 24.436C24.312 24.0987 23.7473 23.93 23.014 23.93H20.198V27.78ZM23.3 34.292C24.048 34.292 24.6273 34.116 25.038 33.764C25.4633 33.412 25.676 32.9134 25.676 32.268C25.676 31.608 25.456 31.0947 25.016 30.728C24.576 30.3467 23.982 30.156 23.234 30.156H20.198V34.292H23.3ZM42.5847 30.442C42.5847 30.882 42.5554 31.278 42.4967 31.63H33.5867C33.6601 32.51 33.9681 33.1994 34.5107 33.698C35.0534 34.1967 35.7207 34.446 36.5127 34.446C37.6567 34.446 38.4707 33.9547 38.9547 32.972H42.2767C41.9247 34.1454 41.2501 35.1134 40.2527 35.876C39.2554 36.624 38.0307 36.998 36.5787 36.998C35.4054 36.998 34.3494 36.7414 33.4107 36.228C32.4867 35.7 31.7607 34.9594 31.2327 34.006C30.7194 33.0527 30.4627 31.9527 30.4627 30.706C30.4627 29.4447 30.7194 28.3374 31.2327 27.384C31.7461 26.4307 32.4647 25.6974 33.3887 25.184C34.3127 24.6707 35.3761 24.414 36.5787 24.414C37.7374 24.414 38.7714 24.6634 39.6807 25.162C40.6047 25.6607 41.3161 26.372 41.8147 27.296C42.3281 28.2054 42.5847 29.254 42.5847 30.442ZM39.3947 29.562C39.3801 28.77 39.0941 28.1394 38.5367 27.67C37.9794 27.186 37.2974 26.944 36.4907 26.944C35.7281 26.944 35.0827 27.1787 34.5547 27.648C34.0414 28.1027 33.7261 28.7407 33.6087 29.562H39.3947Z" fill="white"/>
<rect x="33.4" y="21" width="6" height="2" fill="white"/>
</svg>
