<svg width="60" height="60" viewBox="0 0 60 60" fill="none" xmlns="http://www.w3.org/2000/svg">
<path d="M0 10C0 4.47715 4.47715 0 10 0H50C55.5228 0 60 4.47715 60 10V50C60 55.5228 55.5228 60 50 60H10C4.47715 60 0 55.5228 0 50V10Z" fill="#671949"/>
<path d="M23.7379 26.4045C23.6136 26.0018 23.4421 25.6413 23.2234 25.3231C23.0096 25 22.7511 24.7241 22.4478 24.4954C22.1495 24.2667 21.8065 24.0951 21.4187 23.9808C21.0309 23.8615 20.6083 23.8018 20.1509 23.8018C19.3306 23.8018 18.5998 24.0081 17.9585 24.4208C17.3171 24.8334 16.8125 25.44 16.4446 26.2404C16.0817 27.0358 15.9002 28.0053 15.9002 29.1488C15.9002 30.3022 16.0817 31.2791 16.4446 32.0795C16.8075 32.8799 17.3121 33.489 17.9585 33.9066C18.6048 34.3192 19.3555 34.5255 20.2106 34.5255C20.9862 34.5255 21.6573 34.3764 22.2241 34.0781C22.7958 33.7798 23.2358 33.3572 23.544 32.8103C23.8523 32.2585 24.0064 31.6122 24.0064 30.8714L24.6328 30.9684H20.4865V28.8057H26.6836V30.6402C26.6836 31.9478 26.4052 33.0788 25.8484 34.0334C25.2915 34.9879 24.5259 35.7237 23.5515 36.2407C22.5771 36.7528 21.4585 37.0089 20.1957 37.0089C18.7887 37.0089 17.5533 36.6932 16.4893 36.0618C15.4304 35.4254 14.6026 34.5231 14.006 33.3547C13.4144 32.1814 13.1186 30.7894 13.1186 29.1786C13.1186 27.9456 13.2926 26.8444 13.6406 25.875C13.9936 24.9055 14.4858 24.0827 15.1172 23.4066C15.7486 22.7255 16.4893 22.2084 17.3395 21.8554C18.1896 21.4975 19.1143 21.3185 20.1136 21.3185C20.9588 21.3185 21.7468 21.4428 22.4776 21.6914C23.2085 21.935 23.8572 22.283 24.424 22.7354C24.9957 23.1878 25.4656 23.7248 25.8335 24.3462C26.2014 24.9677 26.4425 25.6537 26.5568 26.4045H23.7379ZM32.1256 21.5273V36.8H29.3589V21.5273H32.1256ZM34.4505 23.8466V21.5273H46.6358V23.8466H41.9153V36.8H39.171V23.8466H34.4505Z" fill="white"/>
</svg>
