<svg width="60" height="60" viewBox="0 0 60 60" fill="none" xmlns="http://www.w3.org/2000/svg">
<path d="M0 10C0 4.47715 4.47715 0 10 0H50C55.5228 0 60 4.47715 60 10V50C60 55.5228 55.5228 60 50 60H10C4.47715 60 0 55.5228 0 50V10Z" fill="#671949"/>
<path d="M23.4768 42.7517L23.8701 36.4349C23.9352 35.3897 24.4076 34.4117 25.1858 33.711L33.869 25.8923C34.7749 25.0765 33.7103 23.6573 32.6737 24.2988L21.0753 31.4755C20.1073 32.0745 18.9299 32.2326 17.8382 31.9104L16.406 31.4876C13.6643 30.6783 13.5008 26.8567 16.1634 25.8161L36.0039 18.0627C40.458 16.3221 45.059 20.237 44.0537 24.9124L41.4128 37.195C40.4904 41.4852 35.4251 43.3662 31.926 40.718L30.4077 39.5689C29.6335 38.983 28.5504 39.0377 27.8393 39.6986L25.064 42.2775C24.684 42.6307 24.2087 42.8646 23.697 42.9502C23.5768 42.9703 23.4692 42.8733 23.4768 42.7517Z" fill="white"/>
</svg>
